<mxfile host="app.diagrams.net" modified="2024-01-03T11:11:27.835Z" agent="Mozilla/5.0 (Windows NT 10.0; Win64; x64) AppleWebKit/537.36 (KHTML, like Gecko) Chrome/120.0.0.0 Safari/537.36" version="22.1.16" etag="6gxL4dz7jD6eTJyxuYfV" type="github">
  <diagram name="페이지-1" id="xd68uEw9v2eNbUR8wPVS">
    <mxGraphModel>
      <root>
        <mxCell id="0" />
        <mxCell id="1" parent="0" />
      </root>
    </mxGraphModel>
  </diagram>
</mxfile>
